<svg width="40" height="40" viewBox="0 0 40 40" fill="none" xmlns="http://www.w3.org/2000/svg">
<path d="M5.87936 35.6634L2.73749 0.422485H37.2625L34.1175 35.6581L19.979 39.5778L5.87936 35.6634Z" fill="#1572B6"/>
<path d="M20.0003 36.5819L31.425 33.4144L34.1128 3.30377H20.0003V36.5819Z" fill="#33A9DC"/>
<path d="M20.0003 16.0716H25.7197L26.1147 11.6456H20.0003V7.32343H30.8384L30.7347 8.48311L29.6722 20.3937H20.0003V16.0716Z" fill="white"/>
<path d="M20.0259 27.2965L20.0069 27.3022L15.1934 26.0025L14.8856 22.5553H10.5475L11.1528 29.3419L20.0062 31.799L20.0259 31.7934V27.2965Z" fill="#EBEBEB"/>
<path d="M25.3522 20.2109L24.8315 25.9991L20.0109 27.3003V31.7972L28.8715 29.3416L28.9365 28.6112L29.6884 20.2109H25.3522Z" fill="white"/>
<path d="M20.015 7.32343V11.6456H9.57499L9.48842 10.6744L9.29155 8.48311L9.18811 7.32343H20.015ZM20.0003 16.0722V20.3944H15.2475L15.1609 19.4231L14.9637 17.2319L14.8606 16.0722H20.0003Z" fill="#EBEBEB"/>
</svg>
