<svg width="50" height="50" viewBox="0 0 50 50" fill="none" xmlns="http://www.w3.org/2000/svg">
<path d="M25 4.16667C22.2641 4.16667 19.5551 4.70554 17.0274 5.75251C14.4998 6.79949 12.2032 8.33406 10.2686 10.2686C6.36162 14.1756 4.16669 19.4747 4.16669 25C4.16669 34.2083 10.1459 42.0208 18.4167 44.7917C19.4584 44.9583 19.7917 44.3125 19.7917 43.75V40.2292C14.0209 41.4792 12.7917 37.4375 12.7917 37.4375C11.8334 35.0208 10.4792 34.375 10.4792 34.375C8.58335 33.0833 10.625 33.125 10.625 33.125C12.7084 33.2708 13.8125 35.2708 13.8125 35.2708C15.625 38.4375 18.6875 37.5 19.875 37C20.0625 35.6458 20.6042 34.7292 21.1875 34.2083C16.5625 33.6875 11.7084 31.8958 11.7084 23.9583C11.7084 21.6458 12.5 19.7917 13.8542 18.3125C13.6459 17.7917 12.9167 15.625 14.0625 12.8125C14.0625 12.8125 15.8125 12.25 19.7917 14.9375C21.4375 14.4792 23.2292 14.25 25 14.25C26.7709 14.25 28.5625 14.4792 30.2084 14.9375C34.1875 12.25 35.9375 12.8125 35.9375 12.8125C37.0834 15.625 36.3542 17.7917 36.1459 18.3125C37.5 19.7917 38.2917 21.6458 38.2917 23.9583C38.2917 31.9167 33.4167 33.6667 28.7709 34.1875C29.5209 34.8333 30.2084 36.1042 30.2084 38.0417V43.75C30.2084 44.3125 30.5417 44.9792 31.6042 44.7917C39.875 42 45.8334 34.2083 45.8334 25C45.8334 22.2641 45.2945 19.555 44.2475 17.0274C43.2005 14.4998 41.666 12.2032 39.7314 10.2686C37.7969 8.33406 35.5002 6.79949 32.9726 5.75251C30.445 4.70554 27.7359 4.16667 25 4.16667Z" fill="#777777"/>
</svg>
