<svg width="50" height="50" viewBox="0 0 50 50" fill="none" xmlns="http://www.w3.org/2000/svg">
<circle cx="25" cy="25" r="25" fill="#00FFD1"/>
<path d="M25.4024 42.136C22.9384 42.136 20.7304 41.736 18.7784 40.936C16.8264 40.136 15.2584 38.952 14.0744 37.384C12.9224 35.816 12.3144 33.928 12.2504 31.72H20.9864C21.1144 32.968 21.5464 33.928 22.2824 34.6C23.0184 35.24 23.9784 35.56 25.1624 35.56C26.3784 35.56 27.3384 35.288 28.0424 34.744C28.7464 34.168 29.0984 33.384 29.0984 32.392C29.0984 31.56 28.8104 30.872 28.2344 30.328C27.6904 29.784 27.0024 29.336 26.1704 28.984C25.3704 28.632 24.2184 28.232 22.7144 27.784C20.5384 27.112 18.7624 26.44 17.3864 25.768C16.0104 25.096 14.8264 24.104 13.8344 22.792C12.8424 21.48 12.3464 19.768 12.3464 17.656C12.3464 14.52 13.4824 12.072 15.7544 10.312C18.0264 8.52 20.9864 7.624 24.6344 7.624C28.3464 7.624 31.3384 8.52 33.6104 10.312C35.8824 12.072 37.0984 14.536 37.2584 17.704H28.3784C28.3144 16.616 27.9144 15.768 27.1784 15.16C26.4424 14.52 25.4984 14.2 24.3464 14.2C23.3544 14.2 22.5544 14.472 21.9464 15.016C21.3384 15.528 21.0344 16.28 21.0344 17.272C21.0344 18.36 21.5464 19.208 22.5704 19.816C23.5944 20.424 25.1944 21.08 27.3704 21.784C29.5464 22.52 31.3064 23.224 32.6504 23.896C34.0264 24.568 35.2104 25.544 36.2024 26.824C37.1944 28.104 37.6904 29.752 37.6904 31.768C37.6904 33.688 37.1944 35.432 36.2024 37C35.2424 38.568 33.8344 39.816 31.9784 40.744C30.1224 41.672 27.9304 42.136 25.4024 42.136Z" fill="#777777"/>
</svg>
