<svg width="40" height="40" viewBox="0 0 40 40" fill="none" xmlns="http://www.w3.org/2000/svg">
<g clip-path="url(#clip0_2_45)">
<path d="M30.625 0H9.375C4.19733 0 0 4.19733 0 9.375V30.625C0 35.8027 4.19733 40 9.375 40H30.625C35.8027 40 40 35.8027 40 30.625V9.375C40 4.19733 35.8027 0 30.625 0Z" fill="#CD6799"/>
<mask id="mask0_2_45" style="mask-type:luminance" maskUnits="userSpaceOnUse" x="4" y="8" width="32" height="24">
<path d="M4.375 8.28125H35.625V31.7045H4.375V8.28125Z" fill="white"/>
</mask>
<g mask="url(#mask0_2_45)">
<path d="M31.2664 21.7439C30.1767 21.7495 29.2298 22.012 28.4368 22.3998C28.1459 21.8237 27.855 21.3103 27.8035 20.9337C27.7465 20.4945 27.6781 20.2264 27.7465 19.7015C27.815 19.1767 28.1231 18.4295 28.1173 18.3725C28.1117 18.3153 28.0489 18.0473 27.4214 18.0415C26.7939 18.0359 26.252 18.1614 26.1892 18.3268C26.1264 18.4921 26.0067 18.8687 25.9268 19.2567C25.8184 19.8271 24.6717 21.8637 24.0157 22.9304C23.8046 22.514 23.6221 22.1489 23.5821 21.8579C23.5251 21.4187 23.4567 21.1506 23.5251 20.6257C23.5935 20.1009 23.9017 19.3535 23.8959 19.2965C23.8903 19.2395 23.8275 18.9714 23.2 18.9657C22.5725 18.96 22.0304 19.0854 21.9678 19.2509C21.905 19.4164 21.8365 19.8043 21.7053 20.1807C21.5742 20.5573 20.051 23.9573 19.6517 24.8357C19.4903 25.1912 19.3211 25.5431 19.144 25.891C19.144 25.891 19.1382 25.9082 19.1212 25.9367C19.0655 26.0458 19.0084 26.1542 18.95 26.2618V26.2676C18.8645 26.4217 18.7731 26.5642 18.7275 26.5642C18.6932 26.5642 18.6306 26.1535 18.7389 25.5945C18.9671 24.4135 19.509 22.5767 19.5034 22.514C19.5034 22.4798 19.606 22.1603 19.1496 21.9948C18.7046 21.8293 18.545 22.1032 18.505 22.1032C18.4651 22.1032 18.4365 22.2003 18.4365 22.2003C18.4365 22.2003 18.9329 20.1351 17.4896 20.1351C16.5882 20.1351 15.3446 21.122 14.7287 22.012C14.0283 22.3931 13.3284 22.7753 12.6292 23.1585C12.2928 23.3468 11.9448 23.5351 11.6195 23.712C11.5967 23.6892 11.5739 23.6606 11.551 23.6378C9.80542 21.7723 6.57667 20.4546 6.71355 17.9503C6.76495 17.0375 7.0787 14.6415 12.9145 11.7321C17.7178 9.3648 21.54 10.0207 22.2017 11.4754C23.1485 13.552 20.1537 17.4082 15.1907 17.9673C13.2967 18.1784 12.3042 17.4482 12.0532 17.1745C11.7907 16.8892 11.7507 16.8721 11.6537 16.9292C11.494 17.0146 11.5967 17.2714 11.6537 17.4196C11.8021 17.8076 12.4125 18.4921 13.445 18.8287C14.3578 19.1254 16.5768 19.2909 19.2637 18.2526C22.2701 17.0889 24.6204 13.8542 23.9301 11.1446C23.24 8.39495 18.6762 7.48792 14.3578 9.02245C11.7906 9.93527 9.00683 11.3728 7.00448 13.2439C4.62558 15.4689 4.24917 17.4026 4.40323 18.2126C4.95652 21.0878 8.9212 22.9589 10.5071 24.3451C10.4273 24.3907 10.3531 24.4307 10.2904 24.465C9.49745 24.8585 6.47402 26.4387 5.72089 28.1103C4.86527 30.0042 5.85792 31.3618 6.51386 31.5443C8.55042 32.1092 10.644 31.0937 11.7679 29.4165C12.8917 27.7393 12.7548 25.5603 12.2356 24.562C12.23 24.5493 12.2223 24.5378 12.2128 24.5278C12.4182 24.4079 12.6292 24.2825 12.8346 24.1626C13.2122 23.9395 13.5944 23.7246 13.9812 23.5179C13.7873 24.0485 13.6446 24.6817 13.5762 25.5945C13.4907 26.667 13.93 28.0589 14.506 28.6065C14.7628 28.846 15.0651 28.8518 15.2592 28.8518C15.9323 28.8518 16.2346 28.2928 16.5712 27.631C16.9818 26.8209 17.3528 25.8796 17.3528 25.8796C17.3528 25.8796 16.8906 28.424 18.1456 28.424C18.602 28.424 19.064 27.8307 19.2695 27.5284V27.534C19.2695 27.534 19.2809 27.517 19.3037 27.477C19.3493 27.4028 19.3778 27.3571 19.3778 27.3571V27.3457C19.5604 27.0264 19.971 26.3018 20.5815 25.0981C21.3687 23.5465 22.1275 21.607 22.1275 21.607C22.1275 21.607 22.1959 22.0804 22.4298 22.8676C22.5667 23.3298 22.852 23.8375 23.0801 24.3281C22.8976 24.5848 22.7835 24.7273 22.7835 24.7273L22.7892 24.7331C22.6409 24.927 22.4812 25.1381 22.3043 25.3434C21.6825 26.0851 20.9409 26.9351 20.8382 27.1804C20.7184 27.4714 20.747 27.6823 20.9751 27.8535C21.1406 27.979 21.4371 27.996 21.7395 27.979C22.2985 27.939 22.6923 27.8021 22.8862 27.7165C23.1885 27.6082 23.5423 27.4428 23.8731 27.1975C24.4835 26.7468 24.8543 26.1021 24.8201 25.2521C24.8029 24.7843 24.6489 24.3167 24.4607 23.8773C24.5178 23.7975 24.569 23.7176 24.626 23.6378C25.5903 22.2287 26.3375 20.6828 26.3375 20.6828C26.3375 20.6828 26.4059 21.1562 26.6398 21.9435C26.7539 22.3428 26.9878 22.7764 27.1932 23.1985C26.2862 23.9345 25.7271 24.7901 25.5275 25.3492C25.1681 26.3875 25.4476 26.8551 25.9781 26.9635C26.2178 27.015 26.56 26.9009 26.811 26.7925C27.1304 26.6898 27.507 26.5129 27.8664 26.2504C28.4767 25.7998 29.0643 25.1723 29.0301 24.3223C29.0129 23.9345 28.9103 23.5521 28.7676 23.1814C29.5378 22.862 30.5304 22.6851 31.7968 22.8334C34.5123 23.1529 35.0485 24.8471 34.9457 25.5603C34.8431 26.2732 34.2726 26.6612 34.0843 26.781C33.8962 26.9009 33.8334 26.9407 33.8506 27.0264C33.8734 27.1518 33.9646 27.146 34.1243 27.1232C34.3468 27.0834 35.5504 26.5471 35.6018 25.2351C35.6875 23.5579 34.0901 21.7267 31.2664 21.7439ZM10.3189 28.8062C9.41761 29.7873 8.16261 30.1582 7.62058 29.8445C7.0387 29.5078 7.26683 28.0589 8.3737 27.0206C9.04667 26.3875 9.91386 25.7998 10.49 25.4404C10.6212 25.3606 10.8151 25.2465 11.049 25.1039C11.089 25.081 11.1118 25.0696 11.1118 25.0696L11.2487 24.984C11.6537 26.4673 11.2657 27.7737 10.3189 28.8062ZM16.8793 24.3451C16.5656 25.1096 15.9096 27.0662 15.5103 26.9579C15.1681 26.8665 14.957 25.3834 15.4418 23.9173C15.6871 23.1814 16.2062 22.3029 16.5085 21.9606C16.9992 21.4129 17.541 21.2304 17.6723 21.4529C17.8378 21.7439 17.0734 23.8659 16.8793 24.3451ZM22.2931 26.9351C22.1618 27.0035 22.0364 27.0492 21.9793 27.015C21.9393 26.9921 22.0364 26.9009 22.0364 26.9009C22.0364 26.9009 22.7153 26.1706 22.9834 25.8398C23.1373 25.6457 23.32 25.4176 23.5139 25.1609V25.2351C23.5139 26.1079 22.6696 26.6954 22.2931 26.9351ZM26.4689 25.9823C26.3718 25.9139 26.389 25.6857 26.7142 24.9726C26.8396 24.6931 27.1364 24.2254 27.644 23.7746C27.701 23.9573 27.741 24.134 27.7353 24.2995C27.7296 25.4006 26.9423 25.8112 26.4689 25.9823Z" fill="white"/>
</g>
</g>
<defs>
<clipPath id="clip0_2_45">
<rect width="40" height="40" fill="white"/>
</clipPath>
</defs>
</svg>
