<svg width="40" height="40" viewBox="0 0 40 40" fill="none" xmlns="http://www.w3.org/2000/svg">
<g clip-path="url(#clip0_2_39)">
<path d="M30.625 0H9.375C4.19733 0 0 4.19733 0 9.375V30.625C0 35.8027 4.19733 40 9.375 40H30.625C35.8027 40 40 35.8027 40 30.625V9.375C40 4.19733 35.8027 0 30.625 0Z" fill="#242938"/>
<path fill-rule="evenodd" clip-rule="evenodd" d="M12.9688 17.1875C13.9062 13.4375 16.2502 11.5625 20 11.5625C25.625 11.5625 26.3281 15.7812 29.1406 16.4844C31.0158 16.9533 32.6562 16.2502 34.0625 14.375C33.1252 18.1248 30.7811 20 27.0312 20C21.4062 20 20.7031 15.7812 17.8906 15.0781C16.0155 14.6094 14.375 15.3125 12.9688 17.1875ZM5.9375 25.625C6.875 21.8752 9.21875 20 12.9688 20C18.5938 20 19.2969 24.2188 22.1094 24.9219C23.9845 25.3908 25.625 24.6877 27.0312 22.8125C26.0939 26.5623 23.7498 28.4375 20 28.4375C14.375 28.4375 13.6719 24.2188 10.8594 23.5156C8.98438 23.0467 7.34375 23.7498 5.9375 25.625Z" fill="url(#paint0_linear_2_39)"/>
</g>
<defs>
<linearGradient id="paint0_linear_2_39" x1="13.5156" y1="11.5625" x2="25.5469" y2="28.9844" gradientUnits="userSpaceOnUse">
<stop stop-color="#32B1C1"/>
<stop offset="1" stop-color="#14C6B7"/>
</linearGradient>
<clipPath id="clip0_2_39">
<rect width="40" height="40" fill="white"/>
</clipPath>
</defs>
</svg>
